<?xml version="1.0" encoding="UTF-8" standalone="no"?>
<!-- Created with Inkscape (http://www.inkscape.org/) -->
<svg height="128" id="svg2606" inkscape:output_extension="org.inkscape.output.svgz.inkscape" inkscape:version="0.46" sodipodi:docbase="/home/david/Progetti/sandbox" sodipodi:docname="audio-mpeg.svgz" sodipodi:version="0.32" version="1.0" width="128" xmlns="http://www.w3.org/2000/svg" xmlns:cc="http://creativecommons.org/ns#" xmlns:dc="http://purl.org/dc/elements/1.1/" xmlns:inkscape="http://www.inkscape.org/namespaces/inkscape" xmlns:rdf="http://www.w3.org/1999/02/22-rdf-syntax-ns#" xmlns:sodipodi="http://sodipodi.sourceforge.net/DTD/sodipodi-0.dtd" xmlns:svg="http://www.w3.org/2000/svg" xmlns:xlink="http://www.w3.org/1999/xlink">
  <metadata>
    <rdf:RDF xmlns:cc="http://web.resource.org/cc/" xmlns:dc="http://purl.org/dc/elements/1.1/" xmlns:rdf="http://www.w3.org/1999/02/22-rdf-syntax-ns#">
      <cc:Work rdf:about="">
        <dc:title/>
        <dc:description/>
        <dc:subject>
          <rdf:Bag>
            <rdf:li>unsorted</rdf:li>
          </rdf:Bag>
        </dc:subject>
        <dc:publisher>
          <cc:Agent rdf:about="http://www.openclipart.org/">
            <dc:title>Open Clip Art Library, Source: Oxygen Icons, Source: Oxygen Icons, Source: Oxygen Icons, Source: Oxygen Icons</dc:title>
          </cc:Agent>
        </dc:publisher>
        <dc:creator>
          <cc:Agent>
            <dc:title/>
          </cc:Agent>
        </dc:creator>
        <dc:rights>
          <cc:Agent>
            <dc:title/>
          </cc:Agent>
        </dc:rights>
        <dc:date/>
        <dc:format>image/svg+xml</dc:format>
        <dc:type rdf:resource="http://purl.org/dc/dcmitype/StillImage"/>
        <cc:license rdf:resource="http://creativecommons.org/licenses/by-sa/3.0/ or http://creativecommons.org/licenses/LGPL/2.1/"/>
        <dc:language>en</dc:language>
      </cc:Work>
    </rdf:RDF>
  </metadata>
  <defs id="defs2608">
    <inkscape:perspective id="perspective2751" inkscape:persp3d-origin="64 : 42.666667 : 1" inkscape:vp_x="0 : 64 : 1" inkscape:vp_y="0 : 1000 : 0" inkscape:vp_z="128 : 64 : 1" sodipodi:type="inkscape:persp3d"/>
    <linearGradient gradientTransform="matrix(0.6736273,0,0,0.6880491,42.39699,15.073568)" gradientUnits="userSpaceOnUse" id="linearGradient3894" inkscape:collect="always" x1="54.103237" x2="32.584381" xlink:href="#XMLID_9_" y1="32.580181" y2="31.295557"/>
    <radialGradient cx="54.212399" cy="18.0903" gradientUnits="userSpaceOnUse" id="XMLID_14_" r="26.416201">
      <stop id="stop74" offset="0.33140001" style="stop-color:#f0ff80;stop-opacity:1"/>
      <stop id="stop3926" offset="0.67438829" style="stop-color:#00ff00;stop-opacity:0;"/>
    </radialGradient>
    <radialGradient cx="54.212399" cy="18.0903" gradientTransform="matrix(0.624346,0,0,0.624346,45.032334,16.880096)" gradientUnits="userSpaceOnUse" id="radialGradient3885" inkscape:collect="always" r="26.416201" xlink:href="#XMLID_14_"/>
    <linearGradient id="linearGradient8528">
      <stop id="stop8530" offset="0" style="stop-color:#888888;stop-opacity:0.39215687;"/>
      <stop id="stop8540" offset="0.5" style="stop-color:#888888;stop-opacity:1;"/>
      <stop id="stop8532" offset="1" style="stop-color:#888888;stop-opacity:0.39215687;"/>
    </linearGradient>
    <radialGradient cx="60" cy="25" gradientUnits="userSpaceOnUse" id="XMLID_11_" r="65.999802">
      <stop id="stop7985" offset="0" style="stop-color:#77DE6C"/>
      <stop id="stop7987" offset="1" style="stop-color:#0A8000"/>
    </radialGradient>
    <radialGradient cx="23.7837" cy="100" gradientUnits="userSpaceOnUse" id="radialGradient4397" r="25.1951" style="fill-opacity:1.0;fill:url(#linearGradient6728)">
      <stop id="stop4401" offset="0" style="stop-color:#2eb800;stop-opacity:1;"/>
      <stop id="stop4403" offset="1" style="stop-color:#003a00;stop-opacity:1;"/>
    </radialGradient>
    <filter id="filter3619" inkscape:collect="always">
      <feGaussianBlur id="feGaussianBlur3621" inkscape:collect="always" stdDeviation="0.69944247"/>
    </filter>
    <linearGradient gradientUnits="userSpaceOnUse" id="linearGradient5332" x1="62.2461" x2="52.9131" y1="8.6162" y2="19.9497">
      <stop id="stop5334" offset="0" style="stop-color:#000000;stop-opacity:0;"/>
      <stop id="stop5336" offset="1" style="stop-color:#07631a;stop-opacity:1;"/>
    </linearGradient>
    <filter height="1.2780566" id="filter2844" inkscape:collect="always" width="1.1466216" x="-0.073310805" y="-0.13902832">
      <feGaussianBlur id="feGaussianBlur2846" inkscape:collect="always" stdDeviation="0.73249726"/>
    </filter>
    <linearGradient id="linearGradient2848">
      <stop id="stop2850" offset="0" style="stop-color:#c3ff6a;stop-opacity:1;"/>
      <stop id="stop2852" offset="1" style="stop-color:#a6ff88;stop-opacity:0;"/>
    </linearGradient>
    <filter id="filter5558" inkscape:collect="always">
      <feGaussianBlur id="feGaussianBlur5560" inkscape:collect="always" stdDeviation="0.61029092"/>
    </filter>
    <radialGradient cx="19.7837" cy="94" fx="17.1172" fy="88.667" gradientUnits="userSpaceOnUse" id="radialGradient4531" r="14">
      <stop id="stop4533" offset="0" style="stop-color:#ffffff;stop-opacity:1;"/>
      <stop id="stop4537" offset="0.5" style="stop-color:#ffffff;stop-opacity:0.70886075;"/>
      <stop id="stop4535" offset="1" style="stop-color:#ffffff;stop-opacity:0;"/>
    </radialGradient>
    <filter height="1.355011" id="filter6116" inkscape:collect="always" width="1.2451262" x="-0.12256312" y="-0.1775055">
      <feGaussianBlur id="feGaussianBlur6118" inkscape:collect="always" stdDeviation="2.0368781"/>
    </filter>
    <linearGradient id="linearGradient4540">
      <stop id="stop4542" offset="0" style="stop-color:#008800;stop-opacity:1;"/>
      <stop id="stop4544" offset="1" style="stop-color:#0aa800;stop-opacity:0.60759491;"/>
    </linearGradient>
    <radialGradient cx="23.7837" cy="100" gradientUnits="userSpaceOnUse" id="XMLID_10_" r="25.1951" style="fill-opacity:1.0;fill:url(#linearGradient6728)">
      <stop id="stop35" offset="0" style="stop-color:#287f00;stop-opacity:1;"/>
      <stop id="stop9094" offset="0.5" style="stop-color:#3cf000;stop-opacity:1;"/>
      <stop id="stop43" offset="1" style="stop-color:#003a00;stop-opacity:1;"/>
    </radialGradient>
    <filter height="1.0245266" id="filter5551" inkscape:collect="always" width="2.117884" x="-0.558942" y="-0.012263282">
      <feGaussianBlur id="feGaussianBlur5553" inkscape:collect="always" stdDeviation="0.465785"/>
    </filter>
    <linearGradient id="linearGradient4390">
      <stop id="stop4392" offset="0" style="stop-color:#00a208;stop-opacity:1;"/>
      <stop id="stop4398" offset="0.5" style="stop-color:#dfffa8;stop-opacity:1;"/>
      <stop id="stop4394" offset="1" style="stop-color:#8aff47;stop-opacity:0.63291138;"/>
    </linearGradient>
    <linearGradient gradientUnits="userSpaceOnUse" id="XMLID_9_" x1="40.1172" x2="48.1172" y1="49" y2="49">
      <stop id="stop16" offset="0" style="stop-color:#008e00;stop-opacity:1;"/>
      <stop id="stop18" offset="0.2294" style="stop-color:#008700"/>
      <stop id="stop20" offset="0.5127" style="stop-color:#007800"/>
      <stop id="stop22" offset="0.8231" style="stop-color:#005F00"/>
      <stop id="stop24" offset="1" style="stop-color:#004D00"/>
    </linearGradient>
    <linearGradient gradientUnits="userSpaceOnUse" id="XMLID_13_" x1="62.2461" x2="52.9131" y1="8.6162" y2="19.9497">
      <stop id="stop88" offset="0" style="stop-color:#000000;stop-opacity:1;"/>
      <stop id="stop104" offset="1" style="stop-color:#000000;stop-opacity:0;"/>
    </linearGradient>
    <linearGradient id="linearGradient10207">
      <stop id="stop10209" offset="0" style="stop-color:#a2a2a2;stop-opacity:1;"/>
      <stop id="stop10211" offset="1" style="stop-color:#ffffff;stop-opacity:1;"/>
    </linearGradient>
    <linearGradient gradientUnits="userSpaceOnUse" id="XMLID_12_" x1="96" x2="88.000198" y1="104" y2="96.000198">
      <stop id="stop83" offset="0" style="stop-color:#888A85"/>
      <stop id="stop85" offset="0.0072" style="stop-color:#8C8E89"/>
      <stop id="stop87" offset="0.0673" style="stop-color:#ABACA9"/>
      <stop id="stop89" offset="0.1347" style="stop-color:#C5C6C4"/>
      <stop id="stop91" offset="0.2652576" style="stop-color:#DBDBDA"/>
      <stop id="stop93" offset="0.37646064" style="stop-color:#EBEBEB"/>
      <stop id="stop95" offset="0.48740286" style="stop-color:#F7F7F6"/>
      <stop id="stop97" offset="0.6324091" style="stop-color:#FDFDFD"/>
      <stop id="stop99" offset="1" style="stop-color:#FFFFFF"/>
    </linearGradient>
    <radialGradient cx="102" cy="112.3047" gradientUnits="userSpaceOnUse" id="XMLID_8_" r="139.55859">
      <stop id="stop41" offset="0" style="stop-color:#b7b8b9;stop-opacity:1;"/>
      <stop id="stop47" offset="0.18851049" style="stop-color:#ECECEC"/>
      <stop id="stop49" offset="0.25718147" style="stop-color:#FAFAFA"/>
      <stop id="stop51" offset="0.30111277" style="stop-color:#FFFFFF"/>
      <stop id="stop53" offset="0.5313" style="stop-color:#FAFAFA"/>
      <stop id="stop55" offset="0.8449" style="stop-color:#EBECEC"/>
      <stop id="stop57" offset="1" style="stop-color:#E1E2E3"/>
    </radialGradient>
    <filter height="1.3839999" id="filter6697" inkscape:collect="always" width="1.3839999" x="-0.19200002" y="-0.19199999">
      <feGaussianBlur id="feGaussianBlur6699" inkscape:collect="always" stdDeviation="1.9447689"/>
    </filter>
    <clipPath clipPathUnits="userSpaceOnUse" id="clipPath7084">
      <path d="M 72,88 L 40,120 L 32,120 L 32,80 L 72,80 L 72,88 z" id="path7086" style="fill:#000000;fill-opacity:1;fill-rule:evenodd;stroke:none;stroke-width:1px;stroke-linecap:butt;stroke-linejoin:miter;stroke-opacity:1"/>
    </clipPath>
    <radialGradient cx="102" cy="112.3047" gradientTransform="matrix(1,0,0,0.9996653,2e-6,3.0160848e-3)" gradientUnits="userSpaceOnUse" id="radialGradient9437" inkscape:collect="always" r="139.55859" xlink:href="#XMLID_8_"/>
    <linearGradient gradientUnits="userSpaceOnUse" id="linearGradient10213" inkscape:collect="always" x1="98.617439" x2="91.228737" xlink:href="#linearGradient10207" y1="106.41443" y2="99.254974"/>
    <filter id="filter2770" inkscape:collect="always">
      <feGaussianBlur id="feGaussianBlur2772" inkscape:collect="always" stdDeviation="2.0786429"/>
    </filter>
    <radialGradient cx="45.43161" cy="111.20621" fx="45.43161" fy="111.20621" gradientTransform="matrix(1,0,0,0.2670157,0,81.512404)" gradientUnits="userSpaceOnUse" id="radialGradient7858" inkscape:collect="always" r="33.764351" xlink:href="#XMLID_13_"/>
    <linearGradient gradientUnits="userSpaceOnUse" id="linearGradient7860" inkscape:collect="always" x1="40.1172" x2="48.1172" xlink:href="#XMLID_9_" y1="49" y2="49"/>
    <linearGradient gradientUnits="userSpaceOnUse" id="linearGradient7862" inkscape:collect="always" x1="44.142799" x2="44.142799" xlink:href="#linearGradient4390" y1="3.4933131" y2="94.157005"/>
    <linearGradient gradientTransform="matrix(1,0,0,0.9999508,19.75779,0)" gradientUnits="userSpaceOnUse" id="linearGradient7864" inkscape:collect="always" x1="44.117001" x2="44.117001" xlink:href="#XMLID_13_" y1="88.249001" y2="83.652809"/>
    <linearGradient gradientTransform="matrix(1,0,0,0.8419836,19.882588,18.956994)" gradientUnits="userSpaceOnUse" id="linearGradient7866" inkscape:collect="always" x1="0.1174117" x2="43.927124" xlink:href="#XMLID_10_" y1="101.0003" y2="92.500053"/>
    <linearGradient gradientUnits="userSpaceOnUse" id="linearGradient7868" inkscape:collect="always" x1="3.9885471" x2="43.874181" xlink:href="#linearGradient4540" y1="100.01298" y2="100.01298"/>
    <radialGradient cx="22.501722" cy="91.356857" fx="19.835222" fy="86.023857" gradientTransform="matrix(0.6862309,-0.2788753,0.2607269,0.6833644,-6.7420546e-2,33.863485)" gradientUnits="userSpaceOnUse" id="radialGradient7870" inkscape:collect="always" r="14" xlink:href="#radialGradient4531"/>
    <radialGradient cx="27.127048" cy="113.89391" fx="27.127048" fy="113.89391" gradientTransform="matrix(1,-2.6486575e-2,1.3961697e-2,0.5271235,18.16764,52.58348)" gradientUnits="userSpaceOnUse" id="radialGradient7872" inkscape:collect="always" r="11.990002" xlink:href="#linearGradient2848"/>
    <linearGradient gradientTransform="matrix(1,0,0,-1,39.75779,128)" gradientUnits="userSpaceOnUse" id="linearGradient7874" inkscape:collect="always" x1="22.025112" x2="21.785669" xlink:href="#linearGradient5332" y1="29.212114" y2="7.9726162"/>
    <linearGradient gradientTransform="scale(1,0.9999508)" gradientUnits="userSpaceOnUse" id="linearGradient7876" inkscape:collect="always" x1="92.25" x2="68" xlink:href="#radialGradient4397" y1="8.4984522" y2="15.500762"/>
    <linearGradient gradientTransform="matrix(0.962555,0,0,0.95911,3.8148459,-0.5857864)" gradientUnits="userSpaceOnUse" id="linearGradient7878" inkscape:collect="always" x1="80.965881" x2="76.376823" xlink:href="#linearGradient2848" y1="4.8331532" y2="14.051684"/>
    <linearGradient gradientUnits="userSpaceOnUse" id="linearGradient8534" inkscape:collect="always" x1="83.806137" x2="83.806137" xlink:href="#linearGradient8528" y1="33.289322" y2="92.312012"/>
    <linearGradient gradientUnits="userSpaceOnUse" id="linearGradient8536" inkscape:collect="always" x1="83.806137" x2="83.806137" xlink:href="#linearGradient8528" y1="33.289322" y2="92.312012"/>
    <linearGradient gradientUnits="userSpaceOnUse" id="linearGradient8538" inkscape:collect="always" x1="83.806137" x2="83.806137" xlink:href="#linearGradient8528" y1="33.289322" y2="92.312012"/>
    <linearGradient gradientUnits="userSpaceOnUse" id="linearGradient8559" inkscape:collect="always" x1="83.806137" x2="83.806137" xlink:href="#linearGradient8528" y1="33.289322" y2="92.312012"/>
    <linearGradient gradientUnits="userSpaceOnUse" id="linearGradient8561" inkscape:collect="always" x1="83.806137" x2="83.806137" xlink:href="#linearGradient8528" y1="33.289322" y2="92.312012"/>
    <linearGradient gradientUnits="userSpaceOnUse" id="linearGradient8563" inkscape:collect="always" x1="83.806137" x2="83.806137" xlink:href="#linearGradient8528" y1="33.289322" y2="92.312012"/>
    <linearGradient gradientUnits="userSpaceOnUse" id="linearGradient8565" inkscape:collect="always" x1="83.806137" x2="83.806137" xlink:href="#linearGradient8528" y1="33.289322" y2="92.312012"/>
    <linearGradient gradientUnits="userSpaceOnUse" id="linearGradient8567" inkscape:collect="always" x1="83.806137" x2="83.806137" xlink:href="#linearGradient8528" y1="33.289322" y2="92.312012"/>
    <linearGradient gradientUnits="userSpaceOnUse" id="linearGradient8569" inkscape:collect="always" x1="83.806137" x2="83.806137" xlink:href="#linearGradient8528" y1="33.289322" y2="92.312012"/>
    <linearGradient gradientUnits="userSpaceOnUse" id="linearGradient8603" inkscape:collect="always" x1="83.806137" x2="83.806137" xlink:href="#linearGradient8528" y1="33.289322" y2="92.312012"/>
    <linearGradient gradientUnits="userSpaceOnUse" id="linearGradient8605" inkscape:collect="always" x1="83.806137" x2="83.806137" xlink:href="#linearGradient8528" y1="33.289322" y2="92.312012"/>
    <linearGradient gradientUnits="userSpaceOnUse" id="linearGradient8607" inkscape:collect="always" x1="83.806137" x2="83.806137" xlink:href="#linearGradient8528" y1="33.289322" y2="92.312012"/>
    <linearGradient gradientUnits="userSpaceOnUse" id="linearGradient8609" inkscape:collect="always" x1="83.806137" x2="83.806137" xlink:href="#linearGradient8528" y1="33.289322" y2="92.312012"/>
    <linearGradient gradientUnits="userSpaceOnUse" id="linearGradient8611" inkscape:collect="always" x1="83.806137" x2="83.806137" xlink:href="#linearGradient8528" y1="33.289322" y2="92.312012"/>
    <linearGradient gradientUnits="userSpaceOnUse" id="linearGradient8613" inkscape:collect="always" x1="83.806137" x2="83.806137" xlink:href="#linearGradient8528" y1="33.289322" y2="92.312012"/>
    <linearGradient gradientUnits="userSpaceOnUse" id="linearGradient9414" inkscape:collect="always" x1="40.1172" x2="48.1172" xlink:href="#XMLID_9_" y1="49" y2="49"/>
    <linearGradient gradientUnits="userSpaceOnUse" id="linearGradient9416" inkscape:collect="always" x1="44.142799" x2="44.142799" xlink:href="#linearGradient4390" y1="3.4933131" y2="94.157005"/>
    <linearGradient gradientTransform="matrix(1,0,0,0.9999508,19.75779,0)" gradientUnits="userSpaceOnUse" id="linearGradient9418" inkscape:collect="always" x1="44.117001" x2="44.117001" xlink:href="#XMLID_13_" y1="88.249001" y2="83.652809"/>
    <linearGradient gradientTransform="matrix(1,0,0,0.8419836,19.882588,18.956994)" gradientUnits="userSpaceOnUse" id="linearGradient9420" inkscape:collect="always" x1="0.1174117" x2="43.927124" xlink:href="#XMLID_10_" y1="101.0003" y2="92.500053"/>
    <linearGradient gradientUnits="userSpaceOnUse" id="linearGradient9422" inkscape:collect="always" x1="3.9885471" x2="43.874181" xlink:href="#linearGradient4540" y1="100.01298" y2="100.01298"/>
    <radialGradient cx="22.501722" cy="91.356857" fx="19.835222" fy="86.023857" gradientTransform="matrix(0.6862309,-0.2788753,0.2607269,0.6833644,-6.7420546e-2,33.863485)" gradientUnits="userSpaceOnUse" id="radialGradient9424" inkscape:collect="always" r="14" xlink:href="#radialGradient4531"/>
    <radialGradient cx="27.127048" cy="113.89391" fx="27.127048" fy="113.89391" gradientTransform="matrix(1,-2.6486575e-2,1.3961697e-2,0.5271235,18.16764,52.58348)" gradientUnits="userSpaceOnUse" id="radialGradient9426" inkscape:collect="always" r="11.990002" xlink:href="#linearGradient2848"/>
    <linearGradient gradientTransform="matrix(1,0,0,-1,39.75779,128)" gradientUnits="userSpaceOnUse" id="linearGradient9428" inkscape:collect="always" x1="22.025112" x2="21.785669" xlink:href="#linearGradient5332" y1="29.212114" y2="7.9726162"/>
    <linearGradient gradientTransform="scale(1,0.9999508)" gradientUnits="userSpaceOnUse" id="linearGradient9430" inkscape:collect="always" x1="92.25" x2="68" xlink:href="#radialGradient4397" y1="8.4984522" y2="15.500762"/>
    <linearGradient gradientTransform="matrix(0.64,0,0,0.6451296,24.32,20.000001)" gradientUnits="userSpaceOnUse" id="linearGradient9433" inkscape:collect="always" x1="92.25" x2="68" xlink:href="#radialGradient4397" y1="8.4984522" y2="15.500762"/>
    <linearGradient gradientTransform="matrix(0.6433337,0,0,0.5432152,37.044465,32.23032)" gradientUnits="userSpaceOnUse" id="linearGradient9440" inkscape:collect="always" x1="0.1174117" x2="43.927124" xlink:href="#XMLID_10_" y1="101.0003" y2="92.500053"/>
    <linearGradient gradientTransform="matrix(0.64,0,0,0.6451296,36.964986,20.000001)" gradientUnits="userSpaceOnUse" id="linearGradient9443" inkscape:collect="always" x1="44.117001" x2="44.117001" xlink:href="#XMLID_13_" y1="88.249001" y2="83.652809"/>
    <linearGradient gradientTransform="matrix(0.64,0,0,0.6451296,37.04512,20.000001)" gradientUnits="userSpaceOnUse" id="linearGradient9447" inkscape:collect="always" x1="40.1172" x2="48.1172" xlink:href="#XMLID_9_" y1="49" y2="49"/>
    <radialGradient cx="45.43161" cy="111.20621" fx="45.43161" fy="111.20621" gradientTransform="matrix(1,0,0,0.2670157,0,81.512404)" gradientUnits="userSpaceOnUse" id="radialGradient10249" inkscape:collect="always" r="33.764351" xlink:href="#XMLID_13_"/>
    <linearGradient gradientUnits="userSpaceOnUse" id="linearGradient10253" inkscape:collect="always" x1="44.142799" x2="44.142799" xlink:href="#linearGradient4390" y1="3.4933131" y2="94.157005"/>
    <linearGradient gradientTransform="matrix(0.4999999,0,0,0.5990894,43.9415,23.614063)" gradientUnits="userSpaceOnUse" id="linearGradient3910" inkscape:collect="always" x1="44.117001" x2="44.117001" xlink:href="#XMLID_13_" y1="88.249001" y2="83.652809"/>
    <linearGradient gradientTransform="matrix(0.4848485,0,0,0.6314195,44.549334,20.000001)" gradientUnits="userSpaceOnUse" id="linearGradient3914" inkscape:collect="always" x1="40.1172" x2="48.1172" xlink:href="#XMLID_9_" y1="49" y2="49"/>
    <linearGradient gradientTransform="matrix(0.6433337,0,0,0.5432152,37.044465,32.23032)" gradientUnits="userSpaceOnUse" id="linearGradient4914" inkscape:collect="always" x1="0.1174117" x2="43.927124" xlink:href="#XMLID_10_" y1="101.0003" y2="92.500053"/>
    <linearGradient gradientUnits="userSpaceOnUse" id="linearGradient4916" inkscape:collect="always" x1="3.9885471" x2="43.874181" xlink:href="#linearGradient4540" y1="100.01298" y2="100.01298"/>
    <radialGradient cx="22.501722" cy="91.356857" fx="19.835222" fy="86.023857" gradientTransform="matrix(0.6862309,-0.2788753,0.2607269,0.6833644,-6.7420546e-2,33.863485)" gradientUnits="userSpaceOnUse" id="radialGradient4918" inkscape:collect="always" r="14" xlink:href="#radialGradient4531"/>
    <radialGradient cx="27.127048" cy="113.89391" fx="27.127048" fy="113.89391" gradientTransform="matrix(1,-2.6486575e-2,1.3961697e-2,0.5271235,18.16764,52.58348)" gradientUnits="userSpaceOnUse" id="radialGradient4920" inkscape:collect="always" r="11.990002" xlink:href="#linearGradient2848"/>
    <linearGradient gradientTransform="matrix(1,0,0,-1,39.75779,128)" gradientUnits="userSpaceOnUse" id="linearGradient4922" inkscape:collect="always" x1="22.025112" x2="21.785669" xlink:href="#linearGradient5332" y1="29.212114" y2="7.9726162"/>
    <filter id="filter6448" inkscape:collect="always">
      <feGaussianBlur id="feGaussianBlur6450" inkscape:collect="always" stdDeviation="0.37043075"/>
    </filter>
  </defs>
  <sodipodi:namedview bordercolor="#666666" borderopacity="1.0" gridtolerance="8" guidetolerance="14" height="128px" id="base" inkscape:current-layer="layer1" inkscape:cx="70.628137" inkscape:cy="107.53251" inkscape:document-units="px" inkscape:grid-points="true" inkscape:guide-bbox="true" inkscape:pageopacity="0.0" inkscape:pageshadow="2" inkscape:window-height="705" inkscape:window-width="826" inkscape:window-x="392" inkscape:window-y="157" inkscape:zoom="1.8298289" objecttolerance="15" pagecolor="#ffffff" showgrid="true" showguides="true" width="128px">
    <inkscape:grid color="#0000ff" empcolor="#0000ff" empopacity="0.4" empspacing="2" enabled="true" id="GridFromPre046Settings" opacity="0.2" originx="0px" originy="0px" spacingx="4px" spacingy="4px" type="xygrid" visible="true"/>
  </sodipodi:namedview>
  <g id="layer1" inkscape:groupmode="layer" inkscape:label="Livello 1">
    <path d="M 16,8 L 16,120 C 16,120 79.15625,120 79.15625,120 L 79.1875,120 C 79.187503,120 91.09375,110.09375 96.59375,104.59375 C 102.09375,99.09375 112,87.1875 112,87.1875 L 112,87.15625 L 112,8 L 16,8 z" id="path7865" sodipodi:nodetypes="csccscccc" style="opacity:0.5;fill:#000000;fill-opacity:1;filter:url(#filter2770)" transform="matrix(1.0416667,0,0,1.0267857,-2.6666667,-1.2142891)"/>
    <path d="M 16.000001,8 L 16,120 C 16,120 79.146418,120 79.146418,120 L 112,87.14642 L 112,8 L 16.000001,8 z" id="path34" sodipodi:nodetypes="cccccc" style="fill:#ffffff;fill-opacity:1"/>
    <path d="M 18.000002,9.0000034 C 17.449002,9.0000034 17.000002,9.4488534 17.000002,9.9996684 L 17.000002,117.96352 C 17.000002,118.51533 17.449002,118.96318 18.000002,118.96318 L 77.171999,118.96318 C 77.434999,118.96318 79.934679,119.08131 80.12068,118.89438 L 110.707,88.094202 C 110.894,87.907264 111,85.40942 111,85.146508 L 111,9.9996684 C 111,9.4488534 110.552,9.0000034 110,9.0000034 L 18.000002,9.0000034 z" id="path59" sodipodi:nodetypes="ccccccccccc" style="fill:url(#radialGradient9437);fill-opacity:1"/>
    <path clip-path="url(#clipPath7084)" d="M 41.879531,115.98249 C 41.879531,115.98249 66.18914,91.672876 66.18914,91.672876 C 66.18914,91.672876 56.836,94.586 46.586,94.586 C 46.586,104.836 41.879531,115.98249 41.879531,115.98249 z" id="path5540" sodipodi:nodetypes="cccc" style="opacity:0.4;fill:#000000;fill-opacity:1;filter:url(#filter6697)" transform="translate(40,0)"/>
    <path d="M 79.172,120 C 79.172,120 91.086,110.086 96.586,104.586 C 102.086,99.086 112,87.172 112,87.172 C 112,87.172 98.25,96 88,96 C 88,106.25 79.172,120 79.172,120 z" id="path14523" sodipodi:nodetypes="csccc" style="fill:url(#linearGradient10213);fill-opacity:1"/>
    <g id="g8542" transform="matrix(0.7796007,0,0,0.8187773,-28.43011,-15.233625)">
      <g id="g7973" style="opacity:0.8;fill:url(#linearGradient8563);fill-opacity:1" transform="translate(76,24)">
        <radialGradient cx="60" cy="25" gradientUnits="userSpaceOnUse" id="radialGradient8130" r="66" style="fill-opacity:1.0;fill:url(#linearGradient8536)">
          <stop id="stop7976" offset="0" style="stop-color:#77DE6C;fill-opacity:1.0;fill:url(#linearGradient8536)"/>
          <stop id="stop7978" offset="1" style="stop-color:#0A8000;fill-opacity:1.0;fill:url(#linearGradient8536)"/>
        </radialGradient>
        <path d="M 76.306,44.035 C 81.057,49.225 83.67,55.96 83.67,63 C 83.67,70.041 81.057,76.775 76.308,81.965 L 80.077,85.414 C 85.69,79.281 88.779,71.32 88.779,63 C 88.779,54.68 85.69,46.719 80.076,40.585 L 76.306,44.035 z" id="path7980" style="fill:url(#linearGradient8565);fill-opacity:1"/>
      </g>
      <g id="g7982" style="opacity:0.6;fill:url(#linearGradient8567);fill-opacity:1" transform="translate(76,24)">
        <radialGradient cx="60" cy="25" gradientUnits="userSpaceOnUse" id="radialGradient8136" r="65.999802" style="fill-opacity:1.0;fill:url(#linearGradient8538)">
          <stop id="stop8138" offset="0" style="stop-color:#77DE6C;fill-opacity:1.0;fill:url(#linearGradient8538)"/>
          <stop id="stop8140" offset="1" style="stop-color:#0A8000;fill-opacity:1.0;fill:url(#linearGradient8538)"/>
        </radialGradient>
        <path d="M 83.849,37.137 C 90.323,44.215 93.89,53.399 93.89,63 C 93.89,72.602 90.324,81.785 83.847,88.861 L 87.618,92.312 C 94.958,84.291 99,73.881 99,63 C 99,52.119 94.958,41.709 87.619,33.688 L 83.849,37.137 z" id="path7989" style="fill:url(#linearGradient8569);fill-opacity:1"/>
      </g>
    </g>
    <g id="g8571" transform="matrix(-0.7796007,0,0,0.8187773,156.43013,-15.233625)">
      <g id="g8573" style="fill:url(#linearGradient8603);fill-opacity:1" transform="translate(76,24)">
        <radialGradient cx="60" cy="25" gradientUnits="userSpaceOnUse" id="radialGradient8575" r="66.000099" style="fill-opacity:1.0;fill:url(#linearGradient8534)">
          <stop id="stop8577" offset="0" style="stop-color:#77DE6C;fill-opacity:1.0;fill:url(#linearGradient8534)"/>
          <stop id="stop8579" offset="1" style="stop-color:#0A8000;fill-opacity:1.0;fill:url(#linearGradient8534)"/>
        </radialGradient>
      </g>
      <g id="g8583" style="opacity:0.8;fill:url(#linearGradient8607);fill-opacity:1" transform="translate(76,24)">
        <radialGradient cx="60" cy="25" gradientUnits="userSpaceOnUse" id="radialGradient8585" r="66" style="fill-opacity:1.0;fill:url(#linearGradient8536)">
          <stop id="stop8587" offset="0" style="stop-color:#77DE6C;fill-opacity:1.0;fill:url(#linearGradient8536)"/>
          <stop id="stop8589" offset="1" style="stop-color:#0A8000;fill-opacity:1.0;fill:url(#linearGradient8536)"/>
        </radialGradient>
        <path d="M 76.306,44.035 C 81.057,49.225 83.67,55.96 83.67,63 C 83.67,70.041 81.057,76.775 76.308,81.965 L 80.077,85.414 C 85.69,79.281 88.779,71.32 88.779,63 C 88.779,54.68 85.69,46.719 80.076,40.585 L 76.306,44.035 z" id="path8591" style="fill:url(#linearGradient8609);fill-opacity:1"/>
      </g>
      <g id="g8593" style="opacity:0.6;fill:url(#linearGradient8611);fill-opacity:1" transform="translate(76,24)">
        <radialGradient cx="60" cy="25" gradientUnits="userSpaceOnUse" id="radialGradient8595" r="65.999802" style="fill-opacity:1.0;fill:url(#linearGradient8538)">
          <stop id="stop8597" offset="0" style="stop-color:#77DE6C;fill-opacity:1.0;fill:url(#linearGradient8538)"/>
          <stop id="stop8599" offset="1" style="stop-color:#0A8000;fill-opacity:1.0;fill:url(#linearGradient8538)"/>
        </radialGradient>
        <path d="M 83.849,37.137 C 90.323,44.215 93.89,53.399 93.89,63 C 93.89,72.602 90.324,81.785 83.847,88.861 L 87.618,92.312 C 94.958,84.291 99,73.881 99,63 C 99,52.119 94.958,41.709 87.619,33.688 L 83.849,37.137 z" id="path8601" style="fill:url(#linearGradient8613);fill-opacity:1"/>
      </g>
    </g>
    <g id="g6452">
      <path d="M 79.195961,111.20621 A 33.764351,9.0156116 0 1 1 11.667259,111.20621 A 33.764351,9.0156116 0 1 1 79.195961,111.20621 z" id="path2268" sodipodi:cx="45.43161" sodipodi:cy="111.20621" sodipodi:rx="33.764351" sodipodi:ry="9.0156116" sodipodi:type="arc" style="opacity:0.6;fill:url(#radialGradient10249);fill-opacity:1;fill-rule:evenodd;stroke:none;stroke-width:4;stroke-linecap:round;stroke-linejoin:round;stroke-miterlimit:4;stroke-dasharray:none;stroke-opacity:1" transform="matrix(0.6065569,0,0,-0.5060088,24.923143,151.70934)"/>
      <path d="M 64,20.000001 L 68,20 L 68,84 L 64,80.616273 L 64,20.000001 z" id="polygon26" sodipodi:nodetypes="ccccc" style="fill:url(#linearGradient3914)"/>
      <path d="M 43.117,3 C 43.117,8.489 43.117,89.342 43.117,93.657 C 43.93,93.861 44.122,93.909 45.117,94.157 C 45.117,87.29 45.117,8.41 45.117,3 C 44.18,3 44.055,3 43.117,3 z" id="path28" style="opacity:0.7;fill:url(#linearGradient10253);fill-opacity:1;filter:url(#filter5551)" transform="matrix(1,0,0,-0.6586861,20.883,82.719523)"/>
      <path d="M 68,73.392341 C 67.143,72.181581 66.1255,72.280489 64.9565,71.342915 C 64.642499,71.091297 64.3225,70.860048 64,70.641381 L 64,81.126644 L 68,84.443026 L 68,73.392341 z" id="path30" sodipodi:nodetypes="cscccc" style="opacity:0.3;fill:url(#linearGradient3910);fill-opacity:1"/>
      <g id="g4907" transform="matrix(1.0439542,-0.1256516,0.123061,0.9926215,-13.588253,5.4747774)">
        <path d="M 37.422745,90.448873 C 39.094769,95.838112 47.227793,98.705202 55.587915,96.853383 C 63.948679,95.001015 69.368766,89.130492 67.697385,83.741249 C 66.02536,78.352554 57.892979,75.48492 49.532858,77.337284 C 41.172737,79.189648 35.750721,85.060176 37.422745,90.448873 z" id="path45" style="fill:url(#linearGradient4914);fill-opacity:1"/>
        <path d="M 43.576,95.141 C 41.685,87.924 31.358,84.38 20.508,87.226 C 9.659,90.072 2.397,98.231 4.288,105.45 C 5.392,109.668 9.388,112.616 14.675,113.783 C 11.444,112.132 9.023,109.457 8.13,106.047 C 6.226,98.778 11.933,90.983 20.878,88.635 C 29.823,86.288 38.619,90.279 40.523,97.547 C 41.417,100.957 40.618,104.478 38.612,107.503 C 42.646,103.891 44.681,99.358 43.576,95.141 z" id="path49" style="opacity:0.9;fill:url(#linearGradient4916);fill-opacity:1;filter:url(#filter6116)" transform="matrix(0.686105,0,0,0.5432152,36.321363,32.23032)"/>
        <path d="M 34.447549,87.550082 C 26.821174,91.714578 22.351297,97.864018 24.881162,100.7108 C 25.981924,101.94913 28.11253,102.24758 29.704981,102.27971 C 33.829576,102.36316 39.151934,100.85171 43.939512,98.237452 C 51.565138,94.073903 56.035552,87.922908 53.504726,85.076463 C 52.403963,83.838127 50.27336,83.539682 48.680904,83.507544 C 44.55556,83.425047 39.235126,84.935827 34.447549,87.550082 z" id="path70" style="opacity:0.8;fill:url(#radialGradient4918);fill-opacity:1;filter:url(#filter5558)" transform="matrix(0.7077814,0,0,0.6148065,20.645198,26.252134)"/>
        <path d="M 46.87479,109 C 39.70279,110.882 34.28679,109.601 34.94979,112.134 C 35.22279,113.179 36.25179,113.966 37.06579,114.442 C 39.30679,115.753 43.49679,116.681 48.53679,115.359 C 55.70779,113.477 59.46279,108.399 58.79979,105.867 C 58.52679,104.821 57.49779,104.035 56.68379,103.558 C 54.44279,102.248 51.91379,107.678 46.87479,109 z" id="path72" style="opacity:0.6;fill:url(#radialGradient4920);fill-opacity:1;filter:url(#filter2844)" transform="matrix(0.7114081,0.1240747,-0.1849201,0.7638422,40.01216,0.650991)"/>
        <path clip-path="none" d="M 87.84375,97.625 C 87.195821,106.01465 79.50551,114.10563 68.59375,116.96875 C 55.59875,120.37775 42.942749,115.1085 40.34375,105.1875 C 40.110816,104.29842 39.966685,103.39736 39.90625,102.5 C 39.798559,104.06171 39.937656,105.6375 40.34375,107.1875 C 42.942749,117.1085 55.59875,122.37775 68.59375,118.96875 C 80.371374,115.87844 88.376529,106.70048 87.84375,97.625 z" id="path2338" style="opacity:0.8;fill:url(#linearGradient4922);fill-opacity:1;filter:url(#filter3619)" transform="matrix(0.6181529,0,0,0.5432152,13.113494,32.23032)"/>
      </g>
      <path d="M 74.474445,31.506933 C 71.055118,27.422674 69.27046,22.448767 68,20 L 68,36.38856 C 91.135055,46.126519 76.191526,72 76.191526,72 C 93.282123,54.396264 77.621635,35.265746 74.474445,31.506933 z" id="path29" sodipodi:nodetypes="ccccc" style="fill:url(#linearGradient3894);fill-opacity:1"/>
      <path d="M 73.283992,31.834433 C 70.159765,28.004069 69.501081,25.426769 68.767471,24.347899 C 68.767471,36.307872 72.659648,36.165521 69.085889,35.47874 C 75.426749,38.7397 80.299771,43.233118 82.158445,48 C 80.073753,40.152595 75.917481,35.062926 73.283992,31.834433 z" id="path90" style="fill:url(#radialGradient3885);filter:url(#filter6448)"/>
    </g>
  </g>
</svg>